<?xml version="1.0" standalone="no"?>
<!DOCTYPE svg PUBLIC "-//W3C//DTD SVG 20010904//EN"
 "http://www.w3.org/TR/2001/REC-SVG-20010904/DTD/svg10.dtd">
<svg version="1.0" xmlns="http://www.w3.org/2000/svg"
 width="144.000000pt" height="144.000000pt" viewBox="0 0 144.000000 144.000000"
 preserveAspectRatio="xMidYMid meet">
<metadata>
Created by potrace 1.11, written by Peter Selinger 2001-2013
</metadata>
<g transform="translate(0.000000,144.000000) scale(0.100000,-0.100000)"
fill="#000000" stroke="none">
<path d="M542 1390 c-119 -32 -226 -94 -312 -180 -41 -42 -90 -101 -108 -132
-125 -212 -127 -488 -5 -698 47 -80 169 -203 248 -250 79 -47 179 -79 243 -80
l52 0 1 63 c1 34 5 176 8 315 l6 254 46 -64 c91 -122 83 -118 203 -118 l105 0
-34 61 c-19 33 -55 87 -81 119 -32 41 -43 63 -37 73 4 8 60 78 123 156 l115
142 19 -23 c32 -39 66 -124 83 -204 53 -262 -128 -536 -397 -598 -35 -8 -67
-21 -71 -28 -5 -7 -9 -38 -9 -69 0 -43 5 -60 19 -74 19 -16 25 -16 98 -1 233
47 435 224 513 452 64 185 41 398 -61 571 -43 71 -191 223 -218 223 -25 0 -27
-1 -239 -262 l-177 -217 -5 92 c-5 85 -7 92 -30 104 -30 15 -134 17 -161 3
-18 -10 -19 -25 -19 -375 0 -201 -3 -365 -8 -365 -4 0 -19 7 -32 17 -82 54
-159 160 -190 261 -27 87 -27 227 0 314 73 238 329 399 570 359 102 -17 103
-16 155 46 l47 57 -22 18 c-39 32 -121 50 -245 54 -97 3 -134 0 -193 -16z"/>
</g>
</svg>
