<?xml version="1.0" standalone="no"?>
<!DOCTYPE svg PUBLIC "-//W3C//DTD SVG 20010904//EN"
 "http://www.w3.org/TR/2001/REC-SVG-20010904/DTD/svg10.dtd">
<svg version="1.0" xmlns="http://www.w3.org/2000/svg"
 width="291.000000pt" height="291.000000pt" viewBox="0 0 291.000000 291.000000"
 preserveAspectRatio="xMidYMid meet">
<metadata>
Created by potrace 1.11, written by Peter Selinger 2001-2013
</metadata>
<g transform="translate(0.000000,291.000000) scale(0.100000,-0.100000)"
fill="#000000" stroke="none">
<path d="M1247 2895 c-341 -56 -613 -197 -844 -439 -193 -201 -313 -431 -374
-716 -33 -151 -33 -419 0 -570 65 -302 186 -527 400 -741 214 -214 439 -335
741 -400 151 -33 419 -33 570 0 302 65 527 186 741 400 214 214 335 439 400
741 33 151 33 419 0 570 -65 302 -186 527 -400 741 -213 213 -441 336 -736
399 -132 28 -374 35 -498 15z m300 -450 c190 -56 251 -309 109 -447 -59 -58
-100 -73 -191 -73 -69 0 -86 4 -127 27 -206 122 -176 413 51 494 48 17 97 17
158 -1z m20 -680 c63 -32 100 -79 124 -157 17 -55 19 -100 19 -547 0 -537 -2
-558 -61 -625 -16 -19 -51 -43 -76 -52 -53 -21 -152 -23 -205 -5 -47 15 -113
88 -127 137 -7 25 -11 216 -11 545 0 574 0 574 73 654 71 78 170 96 264 50z"/>
</g>
</svg>
